<?xml version="1.0" standalone="no"?>
<!DOCTYPE svg PUBLIC "-//W3C//DTD SVG 20010904//EN"
 "http://www.w3.org/TR/2001/REC-SVG-20010904/DTD/svg10.dtd">
<svg version="1.0" xmlns="http://www.w3.org/2000/svg"
 width="319.000000pt" height="319.000000pt" viewBox="0 0 319.000000 319.000000"
 preserveAspectRatio="xMidYMid meet">
<metadata>
Created by potrace 1.14, written by Peter Selinger 2001-2017
</metadata>
<g transform="translate(0.000000,319.000000) scale(0.100000,-0.100000)"
fill="#000000" stroke="none">
<path d="M769 3140 c-21 -13 -408 -402 -413 -416 -3 -7 -6 -68 -7 -134 l-1
-121 211 -213 212 -212 182 -3 c100 -1 183 -4 185 -6 2 -2 -69 -106 -159 -232
l-163 -228 -124 -275 c-68 -151 -137 -303 -153 -338 -16 -35 -29 -65 -29 -67
0 -4 -68 -151 -81 -177 -29 -55 17 7 159 214 599 876 715 1044 722 1051 4 5
42 -25 85 -67 l77 -75 -49 -68 c-26 -37 -51 -72 -56 -78 -51 -61 -259 -372
-276 -413 -12 -29 -39 -91 -61 -138 -22 -47 -40 -87 -40 -89 0 -2 -16 -39 -36
-82 -20 -43 -53 -116 -74 -163 -21 -47 -52 -115 -69 -153 -17 -37 -31 -70 -31
-72 0 -3 -11 -29 -25 -58 -33 -70 -31 -67 276 383 300 439 528 773 546 798 11
15 16 13 53 -23 l40 -41 -184 -269 c-101 -149 -211 -308 -243 -355 l-58 -85
-60 2 -60 1 38 -34 c33 -31 35 -34 13 -30 -33 6 -40 -3 -19 -26 16 -17 13 -23
-44 -108 -34 -50 -65 -104 -68 -121 -6 -28 -2 -37 39 -78 l46 -47 124 1 c69 0
127 3 129 5 3 3 7 16 9 30 l3 24 -134 3 c-188 5 -194 13 -100 142 l61 83 -21
22 c-20 21 -21 56 -1 56 18 0 41 -39 35 -61 -5 -20 9 -39 85 -114 63 -62 88
-95 85 -106 -8 -26 13 -33 40 -15 33 22 31 16 -5 -22 -32 -34 -40 -58 -15 -48
18 6 19 -1 4 -43 l-11 -31 -351 0 c-193 0 -348 -2 -346 -4 2 -2 162 -7 354
-10 821 -14 1273 -23 1292 -25 6 0 10 -10 8 -21 -2 -13 2 -20 11 -20 8 0 14 5
14 10 0 6 4 10 10 10 5 0 7 -8 3 -17 -5 -14 0 -12 20 6 25 23 28 49 4 34 -7
-3 -4 3 6 14 18 21 18 21 -5 25 -22 3 -26 18 -19 67 0 4 13 7 29 5 l27 -3 -30
27 c-16 14 -22 23 -13 19 26 -9 30 8 8 28 -19 17 -20 17 -20 0 0 -17 -1 -17
-18 -2 -21 19 -34 13 -25 -10 5 -13 -41 -14 -408 -8 -228 4 -420 7 -427 8 -7
0 -11 6 -8 13 5 12 192 281 208 299 5 6 145 10 368 10 l360 0 142 -143 143
-144 0 -124 c0 -69 -2 -129 -5 -134 -3 -6 -68 -73 -144 -150 l-138 -140 -796
0 c-437 0 -793 -2 -791 -4 4 -4 171 -7 1114 -21 204 -4 393 -8 421 -10 l51 -3
162 162 162 163 0 133 0 132 -53 54 c-29 30 -53 59 -53 66 0 7 -8 12 -17 10
-8 -1 -19 5 -22 14 -5 12 -2 15 9 10 10 -3 13 -2 10 5 -4 6 -13 8 -21 5 -8 -3
-46 28 -93 77 l-80 83 -228 3 c-412 5 -443 7 -444 16 0 6 59 95 132 198 l133
188 75 -74 c74 -73 230 -225 340 -330 29 -29 52 -47 50 -40 -2 7 -101 112
-219 234 -118 122 -216 227 -218 233 -3 15 77 128 88 124 5 -2 85 -77 177
-168 381 -372 551 -529 356 -329 -470 483 -513 527 -513 534 0 12 81 120 90
120 5 0 51 -40 102 -90 197 -189 191 -178 -29 55 -36 38 -58 69 -54 75 94 120
466 666 476 697 49 155 54 180 56 272 l3 97 -195 193 -196 194 -284 6 c-242 5
-588 11 -1202 20 -70 1 -132 -1 -138 -4z m155 -131 c1 -2 46 -57 99 -121 53
-64 93 -118 89 -120 -4 -2 -32 -3 -62 -2 -155 4 -130 -6 -237 102 -103 104
-104 101 -5 -17 l63 -76 -53 -3 c-60 -4 -88 -23 -88 -61 0 -23 -6 -19 -70 44
-39 38 -69 74 -67 78 1 5 42 48 91 97 l88 87 75 -2 c41 -2 75 -4 77 -6z m1614
-138 l142 -143 0 -93 c0 -166 -22 -215 -233 -525 -99 -146 -200 -294 -225
-329 l-44 -63 -99 103 c-54 57 -98 109 -99 115 0 6 8 22 19 35 39 51 363 511
382 544 24 40 32 159 14 203 -13 30 57 26 -650 37 -275 4 -515 8 -534 9 -29 1
-50 18 -152 121 -65 66 -114 122 -109 125 4 3 332 5 727 5 l719 0 142 -144z
m-1879 -134 l70 -84 -1 -91 c-2 -82 1 -94 20 -115 19 -20 33 -23 99 -25 42 -1
78 -4 79 -5 123 -144 193 -231 190 -236 -3 -4 -82 -6 -176 -6 l-172 1 -144
148 -144 148 0 128 0 128 43 46 c23 25 47 45 53 46 7 0 44 -37 83 -83z m357
-134 c16 -21 28 -40 26 -43 -1 -2 -42 -4 -92 -5 l-90 0 0 42 0 43 64 0 c62 0
64 -1 92 -37z m243 0 c17 -21 31 -40 31 -43 0 -3 -39 -5 -86 -5 l-85 1 -42 42
-42 42 97 0 97 0 30 -37z m285 -2 c-30 -46 -33 -48 -104 -46 -57 1 -77 10
-119 58 l-24 27 136 0 137 0 -26 -39z m758 22 c9 -35 -9 -67 -177 -312 l-170
-250 -38 37 c-25 25 -35 42 -31 54 5 17 2 19 -33 22 -7 1 -30 18 -51 39 l-39
38 -22 -28 -21 -28 -75 80 c-41 44 -75 83 -75 87 0 4 27 46 60 93 33 47 60 89
60 93 0 5 -25 8 -55 7 -59 -1 -62 2 -44 54 l11 31 348 0 c323 0 348 -1 352
-17z m-1085 -262 c27 -31 56 -63 67 -72 23 -19 17 -43 -25 -89 l-31 -34 -80
85 c-44 46 -99 103 -122 127 l-41 43 92 -2 93 -1 47 -57z m185 50 c4 -1 -7
-21 -24 -46 l-31 -44 -44 42 c-24 23 -43 44 -43 47 0 5 108 5 142 1z m198
-168 c33 -31 60 -59 60 -62 0 -4 -38 -6 -85 -6 -114 1 -126 12 -84 78 17 26
35 47 40 47 5 0 36 -26 69 -57z m-38 -231 c18 -18 18 -20 -18 -68 -21 -27 -39
-51 -41 -53 -3 -4 -143 136 -143 143 0 1 41 1 92 0 73 -3 95 -7 110 -22z m300
-24 c17 -17 18 -24 8 -46 -6 -15 -23 -42 -38 -60 l-28 -34 -37 38 c-20 21 -37
41 -37 44 0 3 16 26 36 53 37 51 49 52 96 5z m55 16 c-9 -9 -28 6 -21 18 4 6
10 6 17 -1 6 -6 8 -13 4 -17z m203 -374 l-42 -62 -104 103 c-57 57 -104 106
-104 110 0 3 19 32 41 63 l42 58 105 -105 104 -105 -42 -62z m-377 212 l38
-37 -36 -50 c-19 -28 -36 -54 -38 -59 -4 -12 -47 19 -70 51 -17 22 -16 24 19
78 20 30 40 55 43 55 3 -1 23 -18 44 -38z m200 -199 c52 -50 98 -96 101 -102
6 -9 -67 -131 -78 -131 -6 0 -201 201 -204 210 -4 12 70 121 80 117 4 -1 49
-43 101 -94z m-104 -161 c56 -53 101 -101 101 -106 0 -4 -57 -92 -127 -194
-70 -103 -136 -202 -148 -219 l-20 -33 -188 2 -187 1 16 26 c52 81 439 621
445 621 4 0 53 -44 108 -98z m-241 -611 c2 -1 -165 -249 -180 -266 -8 -9 -228
200 -228 218 0 4 10 18 23 30 21 22 28 22 202 21 99 -1 181 -2 183 -3z m713
-381 c1 -3 3 -20 5 -37 l2 -33 -474 0 c-449 0 -474 1 -465 18 5 9 18 26 28 37
19 20 32 20 461 20 243 0 443 -2 443 -5z"/>
<path d="M1716 2581 c-14 -26 -14 -30 -1 -25 8 3 17 15 21 26 10 32 -3 32 -20
-1z"/>
<path d="M1731 2550 c-4 -3 -14 -22 -21 -44 -12 -37 -11 -40 16 -67 23 -23 40
-30 82 -32 28 -2 55 -7 59 -10 3 -4 2 -7 -4 -7 -5 0 -15 -11 -21 -25 -14 -31
-7 -44 53 -97 l42 -37 62 92 c82 120 85 140 32 192 l-41 39 -125 1 c-69 0
-130 -2 -134 -5z"/>
<path d="M1680 2335 c41 -41 78 -75 82 -75 4 0 20 19 35 41 l27 41 -37 34
c-35 32 -41 34 -109 34 l-72 0 74 -75z"/>
<path d="M1912 2196 c-10 -23 -9 -24 29 -22 44 1 47 6 21 29 -25 23 -37 21
-50 -7z"/>
<path d="M2515 820 c27 -27 53 -50 57 -50 4 0 -15 23 -41 50 -26 28 -52 50
-57 50 -4 0 14 -22 41 -50z"/>
<path d="M1313 475 c-9 -25 4 -29 17 -6 7 15 7 21 0 21 -6 0 -13 -7 -17 -15z"/>
<path d="M657 39 c7 -7 15 -10 18 -7 3 3 -2 9 -12 12 -14 6 -15 5 -6 -5z"/>
<path d="M748 33 c6 -2 18 -2 25 0 6 3 1 5 -13 5 -14 0 -19 -2 -12 -5z"/>
</g>
</svg>
